<?xml version="1.0" encoding="UTF-8"?>
<svg id="Layer_1" data-name="Layer 1"
  xmlns="http://www.w3.org/2000/svg"
  xmlns:xlink="http://www.w3.org/1999/xlink" viewBox="0 0 20 20">
  <path class="cls-4" d="M10.3,12.72c1.75,0,2.74-.85,3.69-2.08.52-.66,1.18-.8,1.66-.43.47.38.52,1.09,0,1.75-1.37,1.8-3.12,2.89-5.35,2.89-2.41,0-4.54-1.32-6.01-3.64-.43-.62-.33-1.28.14-1.61s1.18-.19,1.61.47c1.04,1.56,2.46,2.65,4.26,2.65h0ZM13.57,6.9c0,.85-.66,1.42-1.42,1.42s-1.42-.57-1.42-1.42.66-1.42,1.42-1.42,1.42.62,1.42,1.42Z"/>
</svg>